HIERARCHY
ROOT Hips
{
	OFFSET 0.00000 0.00000 0.00000
	CHANNELS 6 Xposition Yposition Zposition Zrotation Yrotation Xrotation 
	JOINT LHipJoint
	{
		OFFSET 0 0 0
		CHANNELS 3 Zrotation Yrotation Xrotation
		JOINT LeftUpLeg
		{
			OFFSET 1.53139 -1.83434 0.76626
			CHANNELS 3 Zrotation Yrotation Xrotation
			JOINT LeftLeg
			{
				OFFSET 2.56112 -7.03663 0.00000
				CHANNELS 3 Zrotation Yrotation Xrotation
				JOINT LeftFoot
				{
					OFFSET 2.59983 -7.14299 0.00000
					CHANNELS 3 Zrotation Yrotation Xrotation
					JOINT LeftToeBase
					{
						OFFSET 0.13742 -0.37757 2.00054
						CHANNELS 3 Zrotation Yrotation Xrotation
						End Site
						{
							OFFSET 0.00000 -0.00000 1.02897
						}
					}
				}
			}
		}
	}
	JOINT RHipJoint
	{
		OFFSET 0 0 0
		CHANNELS 3 Zrotation Yrotation Xrotation
		JOINT RightUpLeg
		{
			OFFSET -1.40122 -1.83435 0.76627
			CHANNELS 3 Zrotation Yrotation Xrotation
			JOINT RightLeg
			{
				OFFSET -2.54052 -6.98003 0.00000
				CHANNELS 3 Zrotation Yrotation Xrotation
				JOINT RightFoot
				{
					OFFSET -2.63179 -7.23079 0.00000
					CHANNELS 3 Zrotation Yrotation Xrotation
					JOINT RightToeBase
					{
						OFFSET -0.24131 -0.66299 2.03908
						CHANNELS 3 Zrotation Yrotation Xrotation
						End Site
						{
							OFFSET -0.00000 -0.00000 1.07391
						}
					}
				}
			}
		}
	}
	JOINT LowerBack
	{
		OFFSET 0 0 0
		CHANNELS 3 Zrotation Yrotation Xrotation
		JOINT Spine
		{
			OFFSET 0.01174 2.10302 -0.29778
			CHANNELS 3 Zrotation Yrotation Xrotation
			JOINT Spine1
			{
				OFFSET 0.00772 2.13227 -0.01247
				CHANNELS 3 Zrotation Yrotation Xrotation
				JOINT Neck
				{
					OFFSET 0 0 0
					CHANNELS 3 Zrotation Yrotation Xrotation
					JOINT Neck1
					{
						OFFSET -0.09219 1.60848 0.31481
						CHANNELS 3 Zrotation Yrotation Xrotation
						JOINT Head
						{
							OFFSET 0.13974 1.65456 -0.31134
							CHANNELS 3 Zrotation Yrotation Xrotation
							End Site
							{
								OFFSET 0.04742 1.69515 -0.14578
							}
						}
					}
				}
				JOINT LeftShoulder
				{
					OFFSET 0 0 0
					CHANNELS 3 Zrotation Yrotation Xrotation
					JOINT LeftArm
					{
						OFFSET 3.24909 1.02882 -0.23993
						CHANNELS 3 Zrotation Yrotation Xrotation
						JOINT LeftForeArm
						{
							OFFSET 5.32955 -0.00000 -0.00000
							CHANNELS 3 Zrotation Yrotation Xrotation
							JOINT LeftHand
							{
								OFFSET 3.69232 -0.00000 -0.00000
								CHANNELS 3 Zrotation Yrotation Xrotation
								JOINT LeftFingerBase
								{
									OFFSET 0 0 0
									CHANNELS 3 Zrotation Yrotation Xrotation
									JOINT LeftHandIndex1
									{
										OFFSET 0.53660 -0.00000 -0.00000
										CHANNELS 3 Zrotation Yrotation Xrotation
										End Site
										{
											OFFSET 0.43262 -0.00000 -0.00000
										}
									}
								}
								JOINT LThumb
								{
									OFFSET 0 0 0
									CHANNELS 3 Zrotation Yrotation Xrotation
									End Site
									{
										OFFSET 0.43922 -0.00000 0.43922
									}
								}
							}
						}
					}
				}
				JOINT RightShoulder
				{
					OFFSET 0 0 0
					CHANNELS 3 Zrotation Yrotation Xrotation
					JOINT RightArm
					{
						OFFSET -3.21387 0.93002 -0.34594
						CHANNELS 3 Zrotation Yrotation Xrotation
						JOINT RightForeArm
						{
							OFFSET -5.23431 -0.00000 0.00000
							CHANNELS 3 Zrotation Yrotation Xrotation
							JOINT RightHand
							{
								OFFSET -3.55301 -0.00000 -0.00000
								CHANNELS 3 Zrotation Yrotation Xrotation
								JOINT RightFingerBase
								{
									OFFSET 0 0 0
									CHANNELS 3 Zrotation Yrotation Xrotation
									JOINT RightHandIndex1
									{
										OFFSET -0.77252 -0.00000 -0.00000
										CHANNELS 3 Zrotation Yrotation Xrotation
										End Site
										{
											OFFSET -0.62283 -0.00000 -0.00000
										}
									}
								}
								JOINT RThumb
								{
									OFFSET 0 0 0
									CHANNELS 3 Zrotation Yrotation Xrotation
									End Site
									{
										OFFSET -0.63234 -0.00000 0.63234
									}
								}
							}
						}
					}
				}
			}
		}
	}
}
MOTION
Frames: 16
Frame Time: .0083333
16.0313 17.8557 -10.196 0 0 0 0 0 0 -21 0 0 0 0 0 0 0 0 0 0 0 0 0 0 21 0 0 0 0 0 0 0 0 0 0 0 0 0 0 0 0 0 0 0 0 0 0 -16 0 0 21 0 0 11 0 0 0 -8 0 0 0 0 0 0 0 0 0 0 0 0 0 0 0 0 0 0 0 0 8 0 0 0 0 0 0 0 0 0 0 0 0 0 0 0 0 0
16.0313 17.8557 -10.1960 8.0370 -76.7351 -5.8594 0.0000 0.0000 0.0000 -21.6102 -9.0912 -6.7231 1.7707 8.3712 23.8472 0.5229 -5.3310 -12.8850 0.5746 -4.8544 -13.4937 0.0000 0.0000 0.0000 21.4239 1.0517 -10.9834 -3.0053 -10.7036 31.2866 -1.2142 -0.1366 -20.8903 -0.0203 -0.9191 2.5263 1.1553 1.0041 8.3451 1.5802 1.5366 -1.0170 0.7964 0.7415 -5.7609 -7.2225 -0.1216 -26.9339 2.7634 1.9446 25.8055 2.6362 0.4703 13.0319 -0.0000 -0.0000 0.0000 -91.7164 6.0975 7.2298 16.4087 -26.0716 -3.8238 -0.0000 -0.0000 3.4682 21.7999 20.3390 7.9145 -7.1250 0.0000 -0.0000 -6.8081 51.6184 -1.1140 -0.0000 -0.0000 0.0000 88.3241 -6.1052 2.9917 -15.3358 24.6118 -3.3645 0.0000 0.0000 7.9946 -12.6734 9.0626 -2.0286 7.1250 -0.0000 -0.0000 10.2148 -20.7582 6.0263
16.0275 17.8581 -10.1991 8.2079 -76.6905 -6.0171 0.0000 0.0000 0.0000 -21.6633 -9.1692 -6.6487 1.7572 8.3408 23.7541 0.5269 -5.2230 -12.9288 0.5781 -4.8690 -13.5352 0.0000 0.0000 0.0000 21.4032 1.2603 -10.9126 -3.0128 -10.7158 31.3274 -1.2172 -0.2636 -20.9606 -0.0253 -1.0263 2.8211 1.0896 0.8886 8.2988 1.4474 1.3664 -0.9214 0.7183 0.6585 -5.6309 -6.7771 0.2354 -26.8792 3.2444 2.1111 25.5385 2.7744 0.6707 12.8941 0.0000 0.0000 0.0000 -91.5413 6.0074 7.2921 16.6392 -26.3796 -3.9257 -0.0000 -0.0000 2.9998 21.3857 20.8888 7.9488 -7.1250 0.0000 -0.0000 -7.3968 52.1178 -1.3020 0.0000 0.0000 0.0000 88.7690 -5.7682 2.6930 -15.2044 24.4301 -3.3100 0.0000 0.0000 8.5092 -12.7943 8.9930 -2.0330 7.1250 -0.0000 -0.0000 10.1315 -20.8230 5.9605
16.0239 17.8586 -10.2023 8.5717 -76.6015 -6.2627 0.0000 0.0000 0.0000 -21.7501 -9.2695 -6.7201 1.7528 8.3311 23.7244 0.5290 -5.1872 -12.9526 0.6081 -4.9914 -13.8839 0.0000 0.0000 0.0000 21.3079 1.2895 -11.0343 -3.0178 -10.7239 31.3541 -1.2161 -0.3240 -20.9726 -0.0210 -0.9359 2.5725 1.0544 0.9425 8.1596 1.4698 1.4345 -0.9779 0.7545 0.6938 -5.6132 -8.4100 -0.2240 -26.5275 4.3426 1.7737 25.3521 3.4033 0.5222 12.7412 0.0000 0.0000 0.0000 -91.6772 6.1100 7.8428 16.7401 -26.5139 -3.9706 -0.0000 -0.0000 2.8479 21.6743 21.3975 8.2502 -7.1250 0.0000 -0.0000 -7.2753 52.6981 -1.3841 0.0000 0.0000 0.0000 88.5941 -6.0679 2.9824 -15.2516 24.4955 -3.3296 0.0000 0.0000 7.8765 -12.9737 8.7563 -2.0086 7.1250 -0.0000 -0.0000 10.0134 -21.0541 5.8358
16.0218 17.8595 -10.2037 8.4809 -76.5292 -6.1251 0.0000 0.0000 0.0000 -21.7203 -9.2558 -6.7640 1.7473 8.3187 23.6863 0.5251 -5.2470 -12.9082 0.6200 -5.0389 -14.0196 0.0000 0.0000 0.0000 21.3247 1.2318 -11.1210 -3.0217 -10.7301 31.3749 -1.2165 -0.3507 -20.9857 -0.0198 -0.9093 2.4993 1.1325 0.9375 8.0913 1.4474 1.4331 -0.9757 0.6884 0.6906 -5.5696 -7.5808 0.0217 -26.6079 3.7928 1.9515 25.4625 3.0868 0.6007 12.8039 -0.0000 -0.0000 0.0000 -91.5882 6.0745 8.3298 16.7545 -26.5330 -3.9771 -0.0000 -0.0000 2.6682 21.9384 21.4428 8.3762 -7.1250 0.0000 -0.0000 -7.0236 52.7935 -1.3523 -0.0000 -0.0000 0.0000 88.5560 -6.4327 3.9631 -15.4444 24.7615 -3.4099 0.0000 0.0000 6.8495 -13.1622 8.4507 -1.9683 7.1250 -0.0000 -0.0000 9.8916 -21.3548 5.6942
16.0193 17.8595 -10.2053 8.2243 -76.5161 -5.8533 0.0000 0.0000 0.0000 -21.6295 -9.1838 -6.8165 1.7463 8.3163 23.6791 0.5244 -5.3441 -12.9034 0.6398 -5.1175 -14.2439 0.0000 0.0000 0.0000 21.4059 1.2290 -11.1425 -3.0223 -10.7311 31.3782 -1.2199 -0.3960 -21.0311 -0.0174 -0.8509 2.3386 1.1340 0.8873 8.0906 1.4549 1.3668 -0.9826 0.7038 0.6579 -5.5763 -8.4100 -0.1577 -26.3637 4.4558 1.8172 25.2402 3.4487 0.5611 12.6584 0.0000 0.0000 0.0000 -91.4931 6.0224 8.3592 16.7625 -26.5436 -3.9806 -0.0000 -0.0000 2.8195 21.4756 21.0522 8.0440 -7.1250 0.0000 -0.0000 -7.3603 52.3036 -1.3291 0.0000 0.0000 0.0000 88.5976 -6.8827 5.1182 -15.7492 25.1795 -3.5386 0.0000 0.0000 6.0013 -13.0234 8.3172 -1.9163 7.1250 -0.0000 -0.0000 9.9973 -21.4952 5.7246
16.0189 17.8623 -10.2098 8.3020 -76.4777 -5.8527 0.0000 0.0000 0.0000 -21.6035 -9.0966 -6.9744 1.7504 8.3255 23.7073 0.5259 -5.5269 -12.9316 0.6825 -5.2822 -14.7152 0.0000 0.0000 0.0000 21.4084 1.3572 -11.1817 -3.0172 -10.7228 31.3505 -1.2209 -0.4567 -21.0617 -0.0269 -1.0585 2.9098 1.0514 0.8514 8.0716 1.4662 1.3118 -1.0151 0.7691 0.6336 -5.6014 -8.6842 -0.1018 -25.7321 4.7211 1.8711 24.6317 3.5747 0.6147 12.2822 0.0000 0.0000 0.0000 -91.3129 5.9227 8.8429 16.6994 -26.4598 -3.9525 -0.0000 -0.0000 2.4562 21.0808 20.7491 7.7766 -7.1250 0.0000 -0.0000 -7.6556 51.9189 -1.3106 0.0000 0.0000 0.0000 88.5714 -7.1278 5.6188 -15.9171 25.4081 -3.6103 0.0000 0.0000 5.7549 -12.8569 8.1609 -1.8557 7.1250 -0.0000 -0.0000 10.1245 -21.6595 5.7614
16.0220 17.8639 -10.2154 7.8195 -76.4055 -5.3964 0.0000 0.0000 0.0000 -21.4494 -9.0589 -7.0453 1.7572 8.3409 23.7544 0.5209 -5.6196 -12.8763 0.6786 -5.2672 -14.6723 0.0000 0.0000 0.0000 21.5689 1.4479 -11.1264 -3.0075 -10.7073 31.2988 -1.2146 -0.5553 -21.0436 -0.0388 -1.2708 3.4943 1.1514 0.8384 8.1381 1.4998 1.3070 -1.0071 0.7478 0.6282 -5.6293 -8.9208 -0.1215 -25.4723 4.9695 1.8412 24.3637 3.6907 0.6218 12.1230 -0.0000 0.0000 0.0000 -91.0543 5.7669 9.8545 16.6085 -26.3388 -3.9121 -0.0000 -0.0000 1.3673 21.4446 20.8338 7.9528 -7.1250 0.0000 -0.0000 -7.3198 52.0711 -1.2799 -0.0000 0.0000 0.0000 88.5385 -7.1912 5.7971 -16.0009 25.5218 -3.6463 0.0000 0.0000 5.5090 -12.8786 7.8964 -1.7991 7.1250 -0.0000 -0.0000 10.1217 -21.9254 5.6975
16.0228 17.8638 -10.2181 7.2930 -76.3758 -4.9353 0.0000 0.0000 0.0000 -21.2991 -9.1129 -7.0173 1.7643 8.3569 23.8034 0.5162 -5.6685 -12.8226 0.6189 -5.0347 -14.0076 0.0000 0.0000 0.0000 21.7289 1.4424 -11.0406 -2.9964 -10.6892 31.2388 -1.2091 -0.6005 -21.0129 -0.0408 -1.3044 3.5869 1.2330 0.8318 8.2444 1.5647 1.3118 -1.0190 0.7675 0.6283 -5.7021 -8.9906 -0.1527 -25.3916 5.0017 1.8068 24.3343 3.7064 0.6047 12.0979 -0.0000 0.0000 0.0000 -91.0790 5.7317 10.1435 16.6290 -26.3660 -3.9211 -0.0000 -0.0000 1.0645 21.5726 21.1853 8.1315 -7.1250 0.0000 -0.0000 -7.3069 52.4593 -1.3474 -0.0000 0.0000 0.0000 88.4920 -7.3038 5.9573 -16.0632 25.6063 -3.6732 0.0000 0.0000 5.2476 -12.6915 7.7524 -1.7400 7.1250 -0.0000 -0.0000 10.2641 -22.0773 5.7442
16.0186 17.8642 -10.2198 7.0392 -76.3700 -4.7280 0.0000 0.0000 0.0000 -21.2231 -9.1430 -6.9975 1.7764 8.3840 23.8865 0.5203 -5.7914 -12.8811 0.5780 -4.8686 -13.5341 0.0000 0.0000 0.0000 21.7993 1.3438 -10.9687 -2.9823 -10.6663 31.1627 -1.2113 -0.5568 -21.0152 -0.0391 -1.2762 3.5091 1.2573 0.8218 8.2475 1.6119 1.3026 -0.9976 0.8044 0.6236 -5.6819 -8.8979 -0.1898 -25.5799 4.8244 1.7867 24.5328 3.6296 0.5735 12.2179 -0.0000 -0.0000 0.0000 -91.2319 5.6673 9.9419 16.6644 -26.4132 -3.9369 -0.0000 -0.0000 1.4255 21.1355 21.2165 7.9641 -7.1250 0.0000 -0.0000 -7.7567 52.4129 -1.4222 -0.0000 -0.0000 0.0000 88.4842 -7.3193 5.9421 -16.0555 25.5958 -3.6699 0.0000 0.0000 5.2525 -12.6264 7.7774 -1.7363 7.1250 -0.0000 -0.0000 10.3099 -22.0545 5.7760
16.0142 17.8627 -10.2212 6.8972 -76.3781 -4.6061 0.0000 0.0000 0.0000 -21.1852 -9.2285 -6.9714 1.7883 8.4106 23.9682 0.5288 -5.7867 -12.9827 0.5635 -4.8078 -13.3611 0.0000 0.0000 0.0000 21.8520 1.3139 -10.9095 -2.9687 -10.6442 31.0891 -1.2053 -0.6331 -20.9921 -0.0339 -1.1882 3.2668 1.3047 0.8325 8.2047 1.6132 1.3200 -0.9749 0.7775 0.6309 -5.6329 -8.7540 -0.2278 -25.7551 4.5940 1.7593 24.7310 3.5217 0.5362 12.3376 0.0000 -0.0000 0.0000 -91.2658 5.6373 10.0598 16.7370 -26.5097 -3.9692 -0.0000 -0.0000 1.5570 20.7084 21.0341 7.7270 -7.1250 0.0000 -0.0000 -8.1226 52.1482 -1.4372 0.0000 -0.0000 0.0000 88.5223 -7.3457 5.9065 -16.0848 25.6354 -3.6826 0.0000 0.0000 5.2385 -12.6077 7.8499 -1.7497 7.1250 -0.0000 -0.0000 10.3196 -21.9821 5.7990
16.0125 17.8609 -10.2236 6.4312 -76.3395 -4.1480 0.0000 0.0000 0.0000 -21.0664 -9.3186 -6.9807 1.7966 8.4288 24.0243 0.5326 -5.6954 -13.0225 0.6005 -4.9607 -13.7965 0.0000 0.0000 0.0000 21.9993 1.3350 -10.8771 -2.9582 -10.6271 31.0322 -1.1949 -0.7822 -20.9582 -0.0309 -1.1355 3.1217 1.4370 0.8275 8.2037 1.6212 1.3269 -0.9841 0.7107 0.6300 -5.6394 -8.8958 -0.2365 -25.3889 4.7741 1.7149 24.4243 3.5906 0.5371 12.1456 -0.0000 -0.0000 0.0000 -91.2495 5.6353 10.3319 16.8369 -26.6422 -4.0139 -0.0000 -0.0000 1.4971 20.7641 21.0214 7.7451 -7.1250 0.0000 -0.0000 -8.0626 52.1449 -1.4258 -0.0000 -0.0000 0.0000 88.5827 -7.3820 5.8714 -16.1329 25.7005 -3.7034 0.0000 0.0000 5.1806 -12.5624 7.8638 -1.7463 7.1250 -0.0000 -0.0000 10.3516 -21.9697 5.8205
16.0112 17.8617 -10.2261 6.0569 -76.3020 -3.7502 0.0000 0.0000 0.0000 -20.9601 -9.4120 -7.0100 1.8020 8.4409 24.0615 0.5291 -5.6857 -12.9796 0.5835 -4.8911 -13.5983 0.0000 0.0000 0.0000 22.1067 1.4120 -10.8642 -2.9516 -10.6163 30.9965 -1.1900 -0.8350 -20.9361 -0.0407 -1.3018 3.5797 1.5560 0.8185 8.1700 1.6122 1.3254 -0.9865 0.6351 0.6254 -5.6199 -8.9831 -0.2288 -25.1245 4.9553 1.6828 24.1562 3.6557 0.5479 11.9889 0.0000 0.0000 0.0000 -91.2536 5.5685 10.4113 16.9270 -26.7614 -4.0544 -0.0000 -0.0000 1.6257 20.7466 21.3749 7.8606 -7.1250 0.0000 -0.0000 -8.2013 52.5068 -1.5236 0.0000 0.0000 0.0000 88.6817 -7.3454 5.7040 -16.1460 25.7182 -3.7091 0.0000 0.0000 5.4315 -12.4279 7.9084 -1.7367 7.1250 -0.0000 -0.0000 10.4463 -21.9297 5.8852
16.0083 17.8627 -10.2251 6.0531 -76.3307 -3.7673 0.0000 0.0000 0.0000 -20.9758 -9.5531 -6.9241 1.8076 8.4533 24.0997 0.5301 -5.5102 -12.9812 0.5529 -4.7631 -13.2341 0.0000 0.0000 0.0000 22.1030 1.4225 -10.8111 -2.9472 -10.6091 30.9727 -1.1973 -0.8247 -20.9952 -0.0387 -1.2694 3.4904 1.5825 0.7989 8.1976 1.6112 1.3028 -0.9928 0.6216 0.6133 -5.6415 -8.8443 -0.1748 -25.1669 4.7915 1.7563 24.1941 3.5841 0.5700 12.0094 0.0000 0.0000 0.0000 -91.3075 5.5421 10.2986 16.9954 -26.8518 -4.0853 -0.0000 -0.0000 1.8281 20.3188 21.4361 7.7068 -7.1250 0.0000 -0.0000 -8.6517 52.4930 -1.6053 0.0000 0.0000 0.0000 88.6950 -7.3339 5.7108 -16.1519 25.7262 -3.7117 0.0000 0.0000 5.6363 -12.2602 7.9813 -1.7283 7.1250 -0.0000 -0.0000 10.5632 -21.8624 5.9698
16.0065 17.8609 -10.2240 6.2644 -76.3805 -4.0274 0.0000 0.0000 0.0000 -21.0424 -9.4708 -6.8721 1.8082 8.4546 24.1037 0.5343 -5.4282 -13.0268 0.5832 -4.8899 -13.5948 0.0000 0.0000 0.0000 22.0425 1.3738 -10.7537 -2.9467 -10.6083 30.9699 -1.2049 -0.7276 -21.0237 -0.0417 -1.3182 3.6248 1.5234 0.7728 8.3269 1.6183 1.2674 -1.0433 0.6650 0.5970 -5.7694 -8.8627 -0.1192 -24.9719 4.7973 1.8206 24.0955 3.5931 0.5999 11.9280 0.0000 -0.0000 0.0000 -91.3366 5.6098 10.2506 17.0389 -26.9090 -4.1049 -0.0000 -0.0000 1.9149 20.0974 21.3676 7.5936 -7.1250 0.0000 -0.0000 -8.8489 52.3831 -1.6184 0.0000 -0.0000 0.0000 88.7004 -7.3848 5.6274 -16.1476 25.7204 -3.7098 0.0000 0.0000 6.0026 -12.0487 8.1355 -1.7301 7.1250 -0.0000 -0.0000 10.7071 -21.7151 6.0905
16.0053 17.8592 -10.2257 6.0847 -76.3756 -3.8975 0.0000 0.0000 0.0000 -20.9931 -9.3467 -6.8509 1.8039 8.4450 24.0742 0.5397 -5.5145 -13.0965 0.6292 -5.0755 -14.1241 0.0000 0.0000 0.0000 22.0978 1.3437 -10.7174 -2.9483 -10.6109 30.9787 -1.2037 -0.6741 -20.9940 -0.0471 -1.4005 3.8515 1.5252 0.7408 8.4210 1.6487 1.2295 -1.0707 0.6995 0.5782 -5.8523 -8.9231 -0.1078 -24.9537 4.8724 1.8350 24.1581 3.6359 0.6085 11.9457 -0.0000 -0.0000 0.0000 -91.3761 5.6586 10.3394 17.1668 -27.0771 -4.1630 -0.0000 -0.0000 2.0930 20.0360 22.1087 7.8152 -7.1250 0.0000 -0.0000 -9.1816 53.1318 -1.8491 -0.0000 -0.0000 0.0000 88.6329 -7.4650 5.8344 -16.1752 25.7577 -3.7218 0.0000 0.0000 6.0054 -12.0583 8.3029 -1.7669 7.1250 -0.0000 -0.0000 10.6914 -21.5468 6.1229
